# xmcd
#
# Track frame offsets: 
#        300
#        13570
#        24276
#        38628
#        55350
#        68867
#        83902
#        105624
#        122800
#        138230
#        156301
#        172758
#
# Disc length: 2531 seconds
#
# Revision: 2
# Processed by: cddbd v1.5.2PL0 Copyright (c) Steve Scherf et al.
# Submitted via: ExactAudioCopyFreeDBPlugin 1.0
#
DISCID=9309df0c
DTITLE=The Way Homers - J is for Jenius!
DYEAR=2011
DGENRE=Basement
TTITLE0=Duct Tape and Super Glue
TTITLE1=Fizzytime
TTITLE2=I Got Nothin'
TTITLE3=Bull Run
TTITLE4=Maxwell's Lecture Circuit
TTITLE5=Carpetbaggin'
TTITLE6=Drake Ale
TTITLE7=Riptide
TTITLE8=Chimpotle
TTITLE9=Harley Down to Rio
TTITLE10=Lazy River
TTITLE11=Why Can't I Win the Lottery
EXTD=Copyright (c) 2011 Jenius Music
EXTT0=
EXTT1=
EXTT2=
EXTT3=
EXTT4=
EXTT5=
EXTT6=
EXTT7=
EXTT8=
EXTT9=
EXTT10=
EXTT11=
PLAYORDER=
